<svg width="23" height="22" viewBox="0 0 23 22" fill="none" xmlns="http://www.w3.org/2000/svg">
<path d="M22.9727 11.3571C22.9657 11.4571 22.9577 11.5681 22.9517 11.6731C22.927 12.1293 22.8718 12.5833 22.7866 13.0321C22.4485 14.8265 21.6711 16.5091 20.5242 17.9298C19.3772 19.3506 17.8963 20.4652 16.2136 21.1741C15.9776 21.2741 15.7366 21.3621 15.4956 21.4441C15.3443 21.4967 15.179 21.4939 15.0296 21.436C14.9332 21.3974 14.8509 21.3302 14.7937 21.2435C14.7365 21.1569 14.7071 21.0549 14.7095 20.951C14.7095 20.451 14.7165 19.9511 14.7175 19.4441C14.7175 18.9021 14.7245 18.3611 14.7175 17.8201C14.7207 17.3995 14.6416 16.9823 14.4846 16.592C14.3763 16.327 14.2123 16.0883 14.0037 15.8921L13.9824 15.868L14.2156 15.838C14.9884 15.7545 15.7436 15.5522 16.4546 15.238C17.2397 14.8833 17.8913 14.288 18.3154 13.5381C18.5608 13.0939 18.7376 12.6151 18.8396 12.118C18.9712 11.4968 19.0242 10.8615 18.9976 10.2271C18.9717 9.22729 18.5893 8.26974 17.9195 7.5271C17.9036 7.51265 17.8928 7.49348 17.8887 7.47241C17.8845 7.45134 17.8873 7.42942 17.8965 7.41003C18.0554 6.95893 18.1212 6.48028 18.0896 6.00305C18.0625 5.52311 17.959 5.05052 17.7835 4.60303C17.7794 4.58676 17.7705 4.57221 17.7578 4.56128C17.7451 4.55035 17.7294 4.54368 17.7127 4.54211C17.5048 4.51609 17.294 4.52615 17.0896 4.57202C16.5979 4.67532 16.1254 4.85526 15.6895 5.1051C15.3805 5.2761 15.0845 5.4671 14.7825 5.6521C14.7682 5.66229 14.7517 5.66898 14.7344 5.67175C14.717 5.67453 14.6994 5.67331 14.6826 5.66809C14.1973 5.53677 13.703 5.44148 13.2036 5.38306C12.6442 5.31736 12.0803 5.29693 11.5176 5.32202C11.1128 5.33934 10.7094 5.38077 10.3096 5.44604C9.95989 5.50239 9.61332 5.57716 9.2715 5.67004C9.25736 5.67313 9.24277 5.67335 9.22853 5.67078C9.21429 5.6682 9.20066 5.66287 9.18849 5.65503C8.7157 5.33322 8.21345 5.05704 7.68849 4.83008C7.3777 4.69486 7.05071 4.60071 6.71559 4.55005C6.55956 4.52536 6.40067 4.52536 6.24465 4.55005C6.23265 4.55313 6.22134 4.55877 6.21169 4.56653C6.20203 4.57429 6.19408 4.58404 6.18849 4.59509C5.97121 5.12933 5.86206 5.70136 5.86745 6.27808C5.8703 6.67532 5.94186 7.06904 6.07863 7.44202C6.08379 7.45494 6.08438 7.46928 6.08058 7.48267C6.07678 7.49605 6.06881 7.50783 6.05763 7.51611C5.64986 7.96654 5.34478 8.50014 5.16359 9.08008C5.03427 9.49457 4.96693 9.92592 4.96364 10.3601C4.95664 10.808 4.98534 11.2558 5.04958 11.6991C5.14011 12.4007 5.37294 13.0765 5.73366 13.6851C6.12359 14.3156 6.6795 14.8266 7.34059 15.1621C7.85468 15.425 8.40386 15.6121 8.97145 15.718C9.28845 15.78 9.60946 15.8181 9.92946 15.8711L9.96657 15.879L9.94948 15.901C9.6653 16.1731 9.46329 16.5196 9.36647 16.901C9.32747 17.036 9.30763 17.1741 9.27663 17.3101C9.27197 17.3309 9.25927 17.3492 9.24147 17.3611C8.85325 17.5404 8.43132 17.6346 8.00368 17.6371C7.65841 17.6386 7.31798 17.5555 7.01222 17.3951C6.70646 17.2348 6.44453 17.002 6.24953 16.717C6.13853 16.567 6.04363 16.4021 5.93263 16.2511C5.71041 15.9321 5.41683 15.6691 5.07546 15.483C4.7629 15.3142 4.39932 15.2658 4.05348 15.347C3.84848 15.396 3.81147 15.519 3.93947 15.686C4.03461 15.8095 4.15456 15.9117 4.29152 15.9861C4.52626 16.1202 4.72847 16.3045 4.88356 16.526C5.15428 16.8763 5.37593 17.2618 5.5425 17.672C5.61774 17.8681 5.72405 18.0508 5.85744 18.213C6.13696 18.5391 6.50925 18.7725 6.92458 18.8821C7.29484 18.9847 7.67853 19.0302 8.06252 19.0171C8.44989 19.0084 8.83594 18.9675 9.21657 18.895C9.21657 18.916 9.21657 18.9351 9.21657 18.9551C9.22257 19.6057 9.22746 20.2564 9.23146 20.9071C9.23706 21.0105 9.21694 21.1135 9.17262 21.207C9.12925 21.2902 9.06433 21.3601 8.98464 21.4095C8.90494 21.459 8.81326 21.4861 8.7195 21.488C8.56153 21.4932 8.40444 21.4631 8.25954 21.4C6.58954 20.8033 5.08769 19.8132 3.88112 18.5135C2.67455 17.2139 1.79884 15.6428 1.32765 13.9331C1.18452 13.4137 1.08083 12.8841 1.01759 12.349C0.80067 10.5647 1.02329 8.75454 1.66628 7.07605C2.30926 5.39756 3.35306 3.90169 4.70656 2.71899C5.81481 1.74852 7.10722 1.01122 8.50661 0.551025C9.09329 0.357232 9.69554 0.214064 10.3067 0.123047C10.7041 0.0617311 11.1047 0.0239614 11.5066 0.0100098C11.5338 0.0086026 11.5609 0.00525106 11.5877 0H12.3186C12.3484 0.00517646 12.3783 0.00895618 12.4085 0.0111084C12.8312 0.0262877 13.2529 0.0672895 13.6707 0.134033C14.2988 0.230168 14.9169 0.382842 15.5176 0.590088C17.1776 1.15942 18.6781 2.11572 19.8953 3.37988C21.1125 4.64404 22.0115 6.17977 22.5176 7.86011C22.7618 8.67323 22.9088 9.51241 22.9556 10.3601C22.9626 10.4601 22.9706 10.56 22.9766 10.66L22.9727 11.3571Z" fill="black"/>
</svg>
