<svg width="147" height="25" viewBox="0 0 147 25" fill="none" xmlns="http://www.w3.org/2000/svg">
<g opacity="0.5">
<path d="M2.286 22.5722C1.056 22.5722 0.282 21.7082 0.282 20.4002C0.282 19.1042 1.056 18.2282 2.286 18.2282C3.246 18.2282 3.87 18.7142 4.038 19.5362H3.48C3.354 19.0142 2.958 18.6722 2.286 18.6722C1.398 18.6722 0.798 19.3022 0.798 20.4002C0.798 21.4982 1.398 22.1282 2.286 22.1282C2.958 22.1282 3.354 21.7922 3.48 21.2822H4.038C3.87 22.0922 3.246 22.5722 2.286 22.5722ZM6.08836 22.5722C5.23036 22.5722 4.60636 21.9542 4.60636 21.0122C4.60636 20.0702 5.24236 19.4522 6.10036 19.4522C6.95836 19.4522 7.58236 20.0702 7.58236 21.0122C7.58236 21.9542 6.94636 22.5722 6.08836 22.5722ZM6.08836 22.1402C6.59836 22.1402 7.06636 21.7622 7.06636 21.0122C7.06636 20.7662 7.02436 20.5562 6.93436 20.3882C6.75436 20.0522 6.43636 19.8842 6.10036 19.8842C5.59036 19.8842 5.12236 20.2622 5.12236 21.0122C5.12236 21.7622 5.59036 22.1402 6.08836 22.1402ZM8.78714 23.8202H8.28314V19.5242H8.73914L8.78714 20.0162C8.97914 19.7282 9.32714 19.4522 9.87914 19.4522C10.7671 19.4522 11.3491 20.1062 11.3491 21.0182C11.3491 21.9302 10.7611 22.5722 9.87314 22.5722C9.38714 22.5722 8.98514 22.3622 8.78714 22.0022V23.8202ZM9.81914 22.1342C10.4191 22.1342 10.8391 21.6842 10.8391 21.0122C10.8391 20.3402 10.4191 19.8902 9.81914 19.8902C9.21914 19.8902 8.79914 20.3402 8.79914 21.0122C8.79914 21.6842 9.21914 22.1342 9.81914 22.1342ZM12.6625 23.8202H12.1345L12.8725 22.2122H12.6985L11.5165 19.5242H12.0625L13.0465 21.8402L14.0905 19.5242H14.6125L12.6625 23.8202ZM15.6485 22.5002H15.1445V19.5242H15.6005L15.6425 20.0942C15.8285 19.7042 16.2065 19.4522 16.7585 19.4522V19.9802H16.6205C16.4465 19.9802 16.2845 20.0102 16.1345 20.0702C15.8405 20.1962 15.6485 20.4782 15.6485 21.0002V22.5002ZM17.6302 18.8642C17.4322 18.8642 17.2822 18.7142 17.2822 18.5162C17.2822 18.3242 17.4322 18.1802 17.6302 18.1802C17.8222 18.1802 17.9782 18.3242 17.9782 18.5162C17.9782 18.7142 17.8222 18.8642 17.6302 18.8642ZM17.8822 22.5002H17.3782V19.5242H17.8822V22.5002ZM20.2597 23.8922C19.4677 23.8922 18.8617 23.4722 18.7297 22.7582H19.2277C19.3537 23.1722 19.7437 23.4542 20.2537 23.4542C20.8357 23.4542 21.2917 23.0762 21.2917 22.3322V21.9002C21.0997 22.2362 20.7157 22.5602 20.1337 22.5602C19.2817 22.5602 18.6337 21.9002 18.6337 21.0002C18.6337 20.1062 19.2817 19.4522 20.1397 19.4522C20.6677 19.4522 21.0817 19.7222 21.2917 20.0582L21.3397 19.5242H21.7957V22.3262C21.7957 23.2922 21.1657 23.8922 20.2597 23.8922ZM20.2117 22.1222C20.8297 22.1222 21.2737 21.6602 21.2737 21.0002C21.2737 20.3582 20.8417 19.8902 20.2117 19.8902C19.5817 19.8902 19.1497 20.3582 19.1497 21.0002C19.1497 21.6602 19.5997 22.1222 20.2117 22.1222ZM23.125 22.5002H22.621V18.1802H23.125V20.0342C23.323 19.6682 23.719 19.4522 24.151 19.4522C24.841 19.4522 25.291 19.8722 25.291 20.7602V22.5002H24.793V20.8142C24.793 20.1962 24.541 19.8842 24.043 19.8842C23.521 19.8842 23.125 20.2682 23.125 20.9582V22.5002ZM27.6866 22.5002H27.2306C26.6846 22.5002 26.3546 22.2782 26.3546 21.5882V19.9502H25.8386V19.5242H26.3546L26.4206 18.8102H26.8586V19.5242H27.7346V19.9502H26.8586V21.5882C26.8586 21.9662 26.9906 22.0682 27.3746 22.0682H27.6866V22.5002ZM31.9308 22.5242C31.5168 22.5242 31.1568 22.4342 30.8448 22.2482C30.2208 21.8882 29.8548 21.2222 29.8548 20.4002C29.8548 19.1402 30.6888 18.2762 31.9308 18.2762C33.1728 18.2762 34.0068 19.1402 34.0068 20.4002C34.0068 20.8142 33.9228 21.1802 33.7488 21.4982C33.4008 22.1402 32.7528 22.5242 31.9308 22.5242ZM31.9308 22.3022C32.3088 22.3022 32.6328 22.2242 32.9088 22.0622C33.4608 21.7442 33.7728 21.1442 33.7728 20.4002C33.7728 19.2482 33.0588 18.4922 31.9308 18.4922C30.8028 18.4922 30.0888 19.2482 30.0888 20.4002C30.0888 20.7722 30.1668 21.1022 30.3168 21.3902C30.6168 21.9662 31.1808 22.3022 31.9308 22.3022ZM31.9308 21.7862C31.1928 21.7862 30.6288 21.2582 30.6288 20.3942C30.6288 19.5362 31.1928 19.0022 31.9308 19.0022C32.5248 19.0022 33.0108 19.3262 33.1608 19.9202H32.6988C32.5848 19.5602 32.2848 19.3682 31.9248 19.3682C31.4628 19.3682 31.0728 19.7102 31.0728 20.4002C31.0728 21.0782 31.4628 21.4262 31.9248 21.4262C32.3148 21.4262 32.5728 21.2462 32.6988 20.8802H33.1608C33.0108 21.4382 32.5248 21.7862 31.9308 21.7862ZM39.0504 22.5002H36.2784V22.1462C36.8484 21.6962 37.3704 21.2342 37.7664 20.7842C38.1624 20.3342 38.4024 19.9022 38.4024 19.5002C38.4024 19.0202 38.1744 18.6602 37.6284 18.6602C37.1124 18.6602 36.7944 19.0022 36.7944 19.5482H36.3084C36.3084 18.7442 36.8424 18.2282 37.6344 18.2282C38.3784 18.2282 38.9064 18.6482 38.9064 19.4822C38.9064 20.4422 37.8684 21.3782 37.0224 22.0802H39.0504V22.5002ZM41.3574 22.5722C40.2654 22.5722 39.5574 21.7322 39.5574 20.4002C39.5574 19.0682 40.2654 18.2282 41.3574 18.2282C41.7294 18.2282 42.0474 18.3182 42.3174 18.4982C42.8514 18.8642 43.1514 19.5362 43.1514 20.4002C43.1514 20.8322 43.0794 21.2102 42.9354 21.5342C42.6474 22.1882 42.1014 22.5722 41.3574 22.5722ZM41.3574 22.1282C42.1074 22.1282 42.6354 21.4622 42.6354 20.4002C42.6354 19.3442 42.1074 18.6782 41.3574 18.6782C40.6014 18.6782 40.0734 19.3442 40.0734 20.4002C40.0734 21.4562 40.6014 22.1282 41.3574 22.1282ZM46.527 22.5002H43.755V22.1462C44.325 21.6962 44.847 21.2342 45.243 20.7842C45.639 20.3342 45.879 19.9022 45.879 19.5002C45.879 19.0202 45.651 18.6602 45.105 18.6602C44.589 18.6602 44.271 19.0022 44.271 19.5482H43.785C43.785 18.7442 44.319 18.2282 45.111 18.2282C45.855 18.2282 46.383 18.6482 46.383 19.4822C46.383 20.4422 45.345 21.3782 44.499 22.0802H46.527V22.5002ZM49.5549 22.5002H49.0569V21.6002H46.9269V21.2102L48.9669 18.3002H49.5549V21.1562H50.1789V21.6002H49.5549V22.5002ZM47.4849 21.1562H49.0809V18.8582L47.4849 21.1562ZM52.8796 22.5002H52.3756V18.3002H53.7316C54.0616 18.3002 54.3256 18.3542 54.5356 18.4622C54.9496 18.6782 55.1476 19.0742 55.1476 19.5302C55.1476 20.0582 54.8716 20.5202 54.2716 20.6942L55.1896 22.5002H54.5956L53.7436 20.7662H53.7076H52.8796V22.5002ZM52.8796 18.7262V20.3702H53.6956C54.3436 20.3702 54.6256 20.0222 54.6256 19.5362C54.6256 19.0382 54.3556 18.7262 53.6896 18.7262H52.8796ZM57.0766 22.5722C56.2186 22.5722 55.5946 21.9542 55.5946 21.0122C55.5946 20.0702 56.2306 19.4522 57.0886 19.4522C57.9466 19.4522 58.5706 20.0702 58.5706 21.0122C58.5706 21.9542 57.9346 22.5722 57.0766 22.5722ZM57.0766 22.1402C57.5866 22.1402 58.0546 21.7622 58.0546 21.0122C58.0546 20.7662 58.0126 20.5562 57.9226 20.3882C57.7426 20.0522 57.4246 19.8842 57.0886 19.8842C56.5786 19.8842 56.1106 20.2622 56.1106 21.0122C56.1106 21.7622 56.5786 22.1402 57.0766 22.1402ZM60.6274 22.5722C59.7694 22.5722 59.1454 21.9542 59.1454 21.0122C59.1454 20.0702 59.7814 19.4522 60.6394 19.4522C61.4974 19.4522 62.1214 20.0702 62.1214 21.0122C62.1214 21.9542 61.4854 22.5722 60.6274 22.5722ZM60.6274 22.1402C61.1374 22.1402 61.6054 21.7622 61.6054 21.0122C61.6054 20.7662 61.5634 20.5562 61.4734 20.3882C61.2934 20.0522 60.9754 19.8842 60.6394 19.8842C60.1294 19.8842 59.6614 20.2622 59.6614 21.0122C59.6614 21.7622 60.1294 22.1402 60.6274 22.1402ZM63.9622 22.5722C63.2482 22.5722 62.7382 22.1882 62.6602 21.5702H63.1762C63.2422 21.8822 63.5122 22.1462 63.9682 22.1462C64.3942 22.1462 64.5862 21.9362 64.5862 21.6902C64.5862 21.3302 64.3162 21.2642 63.8422 21.1682C63.6802 21.1382 63.5242 21.0902 63.3622 21.0302C63.0442 20.9102 62.7982 20.7002 62.7982 20.3402C62.7982 19.8182 63.2122 19.4522 63.8782 19.4522C64.5082 19.4522 64.9402 19.7822 65.0062 20.3642H64.5082C64.4662 20.0582 64.2382 19.8782 63.8722 19.8782C63.5122 19.8782 63.3082 20.0462 63.3082 20.2922C63.3082 20.5322 63.5782 20.6522 64.0102 20.7482C64.1962 20.7902 64.3702 20.8382 64.5382 20.8922C64.8682 21.0122 65.1022 21.2162 65.1022 21.6482C65.1082 22.1822 64.6642 22.5722 63.9622 22.5722ZM67.3194 22.5002H66.8634C66.3174 22.5002 65.9874 22.2782 65.9874 21.5882V19.9502H65.4714V19.5242H65.9874L66.0534 18.8102H66.4914V19.5242H67.3674V19.9502H66.4914V21.5882C66.4914 21.9662 66.6234 22.0682 67.0074 22.0682H67.3194V22.5002ZM69.2817 22.5722C68.4237 22.5722 67.7997 21.9542 67.7997 21.0122C67.7997 20.0702 68.4357 19.4522 69.2937 19.4522C70.1517 19.4522 70.7757 20.0702 70.7757 21.0122C70.7757 21.9542 70.1397 22.5722 69.2817 22.5722ZM69.2817 22.1402C69.7917 22.1402 70.2597 21.7622 70.2597 21.0122C70.2597 20.7662 70.2177 20.5562 70.1277 20.3882C69.9477 20.0522 69.6297 19.8842 69.2937 19.8842C68.7837 19.8842 68.3157 20.2622 68.3157 21.0122C68.3157 21.7622 68.7837 22.1402 69.2817 22.1402ZM72.8445 22.5722C71.9745 22.5722 71.3505 21.9482 71.3505 21.0122C71.3505 20.0762 71.9745 19.4522 72.8445 19.4522C73.5465 19.4522 74.0685 19.8482 74.1945 20.4662H73.6785C73.6005 20.1002 73.2525 19.8842 72.8385 19.8842C72.6705 19.8842 72.5145 19.9262 72.3645 20.0102C72.0705 20.1782 71.8665 20.5142 71.8665 21.0122C71.8665 21.7862 72.3645 22.1462 72.8385 22.1462C73.2525 22.1462 73.6005 21.9362 73.6785 21.5582H74.1945C74.0745 22.1582 73.5465 22.5722 72.8445 22.5722ZM75.4024 22.5002H74.8984V18.1802H75.4024V20.7782L76.6204 19.5242H77.2384L75.9184 20.8682L77.4064 22.5002H76.7644L75.4024 20.9582V22.5002ZM81.9997 22.5002H79.5397V18.3002H80.0437V22.0982H81.9997V22.5002ZM83.652 22.5722C82.932 22.5722 82.548 22.1702 82.548 21.6542C82.548 21.0482 83.046 20.7062 83.844 20.7062H84.648V20.6702C84.648 20.1482 84.354 19.8782 83.898 19.8782C83.508 19.8782 83.196 20.0762 83.124 20.4542H82.608C82.662 19.8482 83.166 19.4522 83.898 19.4522C84.732 19.4522 85.152 19.9322 85.152 20.6702V22.5002H84.702L84.672 21.9662C84.504 22.3022 84.198 22.5722 83.652 22.5722ZM83.73 22.1462C84.282 22.1462 84.648 21.6842 84.648 21.1022V21.0962H83.886C83.292 21.0962 83.076 21.3242 83.076 21.6302C83.076 21.9422 83.316 22.1462 83.73 22.1462ZM87.4981 22.5722C87.0121 22.5722 86.6101 22.3622 86.4121 22.0022L86.3641 22.5002H85.9081V18.1802H86.4121V20.0162C86.6041 19.7282 86.9521 19.4522 87.5041 19.4522C88.3921 19.4522 88.9741 20.1062 88.9741 21.0182C88.9741 21.9302 88.3861 22.5722 87.4981 22.5722ZM87.4441 22.1342C88.0441 22.1342 88.4641 21.6842 88.4641 21.0122C88.4641 20.3402 88.0441 19.8902 87.4441 19.8902C86.8441 19.8902 86.4241 20.3402 86.4241 21.0122C86.4241 21.6842 86.8441 22.1342 87.4441 22.1342ZM90.8157 22.5722C90.1017 22.5722 89.5917 22.1882 89.5137 21.5702H90.0297C90.0957 21.8822 90.3657 22.1462 90.8217 22.1462C91.2477 22.1462 91.4397 21.9362 91.4397 21.6902C91.4397 21.3302 91.1697 21.2642 90.6957 21.1682C90.5337 21.1382 90.3777 21.0902 90.2157 21.0302C89.8977 20.9102 89.6517 20.7002 89.6517 20.3402C89.6517 19.8182 90.0657 19.4522 90.7317 19.4522C91.3617 19.4522 91.7937 19.7822 91.8597 20.3642H91.3617C91.3197 20.0582 91.0917 19.8782 90.7257 19.8782C90.3657 19.8782 90.1617 20.0462 90.1617 20.2922C90.1617 20.5322 90.4317 20.6522 90.8637 20.7482C91.0497 20.7902 91.2237 20.8382 91.3917 20.8922C91.7217 21.0122 91.9557 21.2162 91.9557 21.6482C91.9617 22.1822 91.5177 22.5722 90.8157 22.5722ZM92.8497 22.5302C92.6517 22.5302 92.5017 22.3802 92.5017 22.1882C92.5017 21.9962 92.6517 21.8462 92.8497 21.8462C93.0417 21.8462 93.1917 21.9962 93.1917 22.1882C93.1917 22.3802 93.0417 22.5302 92.8497 22.5302ZM95.7295 22.5002H95.2015L96.7495 18.3002H97.2835L98.8255 22.5002H98.2915L97.9075 21.4202H96.1195L95.7295 22.5002ZM96.2695 21.0122H97.7575L97.0135 18.9362L96.2695 21.0122ZM99.9239 22.5002H99.4199V18.1802H99.9239V22.5002ZM101.254 22.5002H100.75V18.1802H101.254V22.5002ZM104.172 22.5002H103.668V19.5242H104.124L104.166 20.0942C104.352 19.7042 104.73 19.4522 105.282 19.4522V19.9802H105.144C104.97 19.9802 104.808 20.0102 104.658 20.0702C104.364 20.1962 104.172 20.4782 104.172 21.0002V22.5002ZM106.154 18.8642C105.956 18.8642 105.806 18.7142 105.806 18.5162C105.806 18.3242 105.956 18.1802 106.154 18.1802C106.346 18.1802 106.502 18.3242 106.502 18.5162C106.502 18.7142 106.346 18.8642 106.154 18.8642ZM106.406 22.5002H105.902V19.5242H106.406V22.5002ZM108.783 23.8922C107.991 23.8922 107.385 23.4722 107.253 22.7582H107.751C107.877 23.1722 108.267 23.4542 108.777 23.4542C109.359 23.4542 109.815 23.0762 109.815 22.3322V21.9002C109.623 22.2362 109.239 22.5602 108.657 22.5602C107.805 22.5602 107.157 21.9002 107.157 21.0002C107.157 20.1062 107.805 19.4522 108.663 19.4522C109.191 19.4522 109.605 19.7222 109.815 20.0582L109.863 19.5242H110.319V22.3262C110.319 23.2922 109.689 23.8922 108.783 23.8922ZM108.735 22.1222C109.353 22.1222 109.797 21.6602 109.797 21.0002C109.797 20.3582 109.365 19.8902 108.735 19.8902C108.105 19.8902 107.673 20.3582 107.673 21.0002C107.673 21.6602 108.123 22.1222 108.735 22.1222ZM111.648 22.5002H111.144V18.1802H111.648V20.0342C111.846 19.6682 112.242 19.4522 112.674 19.4522C113.364 19.4522 113.814 19.8722 113.814 20.7602V22.5002H113.316V20.8142C113.316 20.1962 113.064 19.8842 112.566 19.8842C112.044 19.8842 111.648 20.2682 111.648 20.9582V22.5002ZM116.21 22.5002H115.754C115.208 22.5002 114.878 22.2782 114.878 21.5882V19.9502H114.362V19.5242H114.878L114.944 18.8102H115.382V19.5242H116.258V19.9502H115.382V21.5882C115.382 21.9662 115.514 22.0682 115.898 22.0682H116.21V22.5002ZM118.038 22.5722C117.324 22.5722 116.814 22.1882 116.736 21.5702H117.252C117.318 21.8822 117.588 22.1462 118.044 22.1462C118.47 22.1462 118.662 21.9362 118.662 21.6902C118.662 21.3302 118.392 21.2642 117.918 21.1682C117.756 21.1382 117.6 21.0902 117.438 21.0302C117.12 20.9102 116.874 20.7002 116.874 20.3402C116.874 19.8182 117.288 19.4522 117.954 19.4522C118.584 19.4522 119.016 19.7822 119.082 20.3642H118.584C118.542 20.0582 118.314 19.8782 117.948 19.8782C117.588 19.8782 117.384 20.0462 117.384 20.2922C117.384 20.5322 117.654 20.6522 118.086 20.7482C118.272 20.7902 118.446 20.8382 118.614 20.8922C118.944 21.0122 119.178 21.2162 119.178 21.6482C119.184 22.1822 118.74 22.5722 118.038 22.5722ZM121.99 22.5002H121.486V19.5242H121.942L121.984 20.0942C122.17 19.7042 122.548 19.4522 123.1 19.4522V19.9802H122.962C122.788 19.9802 122.626 20.0102 122.476 20.0702C122.182 20.1962 121.99 20.4782 121.99 21.0002V22.5002ZM124.893 22.5722C124.029 22.5722 123.429 21.9542 123.429 21.0122C123.429 20.0702 124.023 19.4522 124.905 19.4522C125.739 19.4522 126.303 20.0522 126.303 20.8442C126.303 20.8862 126.303 20.9342 126.303 20.9762C126.297 21.0182 126.297 21.0722 126.297 21.1262H123.927C123.963 21.8342 124.443 22.1462 124.893 22.1462C125.307 22.1462 125.595 21.9422 125.721 21.6122H126.219C126.057 22.1642 125.595 22.5722 124.893 22.5722ZM124.893 19.8782C124.413 19.8782 123.987 20.1782 123.933 20.7362H125.805C125.781 20.2022 125.397 19.8782 124.893 19.8782ZM128.111 22.5722C127.397 22.5722 126.887 22.1882 126.809 21.5702H127.325C127.391 21.8822 127.661 22.1462 128.117 22.1462C128.543 22.1462 128.735 21.9362 128.735 21.6902C128.735 21.3302 128.465 21.2642 127.991 21.1682C127.829 21.1382 127.673 21.0902 127.511 21.0302C127.193 20.9102 126.947 20.7002 126.947 20.3402C126.947 19.8182 127.361 19.4522 128.027 19.4522C128.657 19.4522 129.089 19.7822 129.155 20.3642H128.657C128.615 20.0582 128.387 19.8782 128.021 19.8782C127.661 19.8782 127.457 20.0462 127.457 20.2922C127.457 20.5322 127.727 20.6522 128.159 20.7482C128.345 20.7902 128.519 20.8382 128.687 20.8922C129.017 21.0122 129.251 21.2162 129.251 21.6482C129.257 22.1822 128.813 22.5722 128.111 22.5722ZM131.309 22.5722C130.445 22.5722 129.845 21.9542 129.845 21.0122C129.845 20.0702 130.439 19.4522 131.321 19.4522C132.155 19.4522 132.719 20.0522 132.719 20.8442C132.719 20.8862 132.719 20.9342 132.719 20.9762C132.713 21.0182 132.713 21.0722 132.713 21.1262H130.343C130.379 21.8342 130.859 22.1462 131.309 22.1462C131.723 22.1462 132.011 21.9422 132.137 21.6122H132.635C132.473 22.1642 132.011 22.5722 131.309 22.5722ZM131.309 19.8782C130.829 19.8782 130.403 20.1782 130.349 20.7362H132.221C132.197 20.2022 131.813 19.8782 131.309 19.8782ZM133.891 22.5002H133.387V19.5242H133.843L133.885 20.0942C134.071 19.7042 134.449 19.4522 135.001 19.4522V19.9802H134.863C134.689 19.9802 134.527 20.0102 134.377 20.0702C134.083 20.1962 133.891 20.4782 133.891 21.0002V22.5002ZM137.006 22.5002H136.424L135.296 19.5242H135.824L136.718 22.0142L137.618 19.5242H138.134L137.006 22.5002ZM139.881 22.5722C139.017 22.5722 138.417 21.9542 138.417 21.0122C138.417 20.0702 139.011 19.4522 139.893 19.4522C140.727 19.4522 141.291 20.0522 141.291 20.8442C141.291 20.8862 141.291 20.9342 141.291 20.9762C141.285 21.0182 141.285 21.0722 141.285 21.1262H138.915C138.951 21.8342 139.431 22.1462 139.881 22.1462C140.295 22.1462 140.583 21.9422 140.709 21.6122H141.207C141.045 22.1642 140.583 22.5722 139.881 22.5722ZM139.881 19.8782C139.401 19.8782 138.975 20.1782 138.921 20.7362H140.793C140.769 20.2022 140.385 19.8782 139.881 19.8782ZM143.309 22.5722C142.421 22.5722 141.833 21.9182 141.833 21.0062C141.833 20.0942 142.421 19.4522 143.315 19.4522C143.801 19.4522 144.191 19.6622 144.401 20.0222V18.1802H144.905V22.5002H144.449L144.401 22.0082C144.209 22.2962 143.855 22.5722 143.309 22.5722ZM143.363 22.1342C143.951 22.1342 144.383 21.7022 144.383 21.0122C144.383 20.3222 143.951 19.8902 143.363 19.8902C142.787 19.8902 142.349 20.3222 142.349 21.0122C142.349 21.7022 142.787 22.1342 143.363 22.1342ZM145.901 22.5302C145.703 22.5302 145.553 22.3802 145.553 22.1882C145.553 21.9962 145.703 21.8462 145.901 21.8462C146.093 21.8462 146.243 21.9962 146.243 22.1882C146.243 22.3802 146.093 22.5302 145.901 22.5302Z" fill="black"/>
</g>
<path d="M3.28 12H0.74V5H3.2C4.63 5 5.39 5.74 5.39 6.78C5.39 7.69 4.83 8.19 4.15 8.39C4.95 8.53 5.55 9.22 5.55 10.09C5.55 11.19 4.71 12 3.28 12ZM1.58 5.7V8.06H3.14C4.03 8.06 4.53 7.62 4.53 6.87C4.53 6.16 4.06 5.7 3.11 5.7H1.58ZM1.58 8.73V11.3H3.19C4.15 11.3 4.69 10.83 4.69 10.03C4.69 9.24 4.1 8.73 3.17 8.73H1.58ZM8.51562 12.12C7.34563 12.12 6.59563 11.42 6.59563 9.94V7.04H7.43563V9.85C7.43563 10.88 7.85563 11.4 8.70563 11.4C9.57563 11.4 10.2056 10.76 10.2056 9.61V7.04H11.0456V12H10.2856L10.2256 11.11C9.91563 11.74 9.27563 12.12 8.51562 12.12ZM12.9383 5.94C12.6083 5.94 12.3583 5.69 12.3583 5.36C12.3583 5.04 12.6083 4.8 12.9383 4.8C13.2583 4.8 13.5183 5.04 13.5183 5.36C13.5183 5.69 13.2583 5.94 12.9383 5.94ZM13.3583 12H12.5183V7.04H13.3583V12ZM15.6609 12H14.8209V4.8H15.6609V12ZM19.7577 12H18.9977C18.0877 12 17.5377 11.63 17.5377 10.48V7.75H16.6777V7.04H17.5377L17.6477 5.85H18.3777V7.04H19.8377V7.75H18.3777V10.48C18.3777 11.11 18.5977 11.28 19.2377 11.28H19.7577V12ZM26.2013 12.12C25.3913 12.12 24.7213 11.77 24.3913 11.17L24.3113 12H23.5513V4.8H24.3913V7.86C24.7113 7.38 25.2913 6.92 26.2113 6.92C27.6913 6.92 28.6613 8.01 28.6613 9.53C28.6613 11.05 27.6813 12.12 26.2013 12.12ZM26.1113 11.39C27.1113 11.39 27.8113 10.64 27.8113 9.52C27.8113 8.4 27.1113 7.65 26.1113 7.65C25.1113 7.65 24.4113 8.4 24.4113 9.52C24.4113 10.64 25.1113 11.39 26.1113 11.39ZM30.8502 14.2H29.9702L31.2002 11.52H30.9102L28.9402 7.04H29.8502L31.4902 10.9L33.2302 7.04H34.1002L30.8502 14.2Z" fill="black"/>
<path d="M68.3177 12.1305H67.4788V1.91153C67.479 1.76345 67.538 1.62152 67.6428 1.51691C67.7476 1.41229 67.8897 1.35352 68.0378 1.35352H68.3177V12.1305Z" fill="#00E482"/>
<path d="M76.3919 4.45154H76.6729C76.8212 4.45154 76.9634 4.51043 77.0682 4.61526C77.173 4.7201 77.2319 4.86227 77.2319 5.01053V12.1295H76.3919V10.4805C76.0863 11.0835 75.6156 11.5873 75.0348 11.9333C74.4539 12.2792 73.7867 12.453 73.1109 12.4345C72.0412 12.3906 71.0299 11.9347 70.2886 11.1622C69.5473 10.3898 69.1333 9.36066 69.1333 8.29004C69.1333 7.21941 69.5473 6.19025 70.2886 5.41781C71.0299 4.64538 72.0412 4.18951 73.1109 4.14554C73.7886 4.12671 74.4576 4.30207 75.0389 4.65094C75.6203 4.99981 76.0897 5.50763 76.3919 6.11453V4.45154ZM76.3919 8.29852C76.4134 7.86468 76.3463 7.43102 76.1947 7.02395C76.0432 6.61688 75.8103 6.24493 75.5104 5.93075C75.2104 5.61658 74.8496 5.36677 74.45 5.19653C74.0504 5.02629 73.6203 4.93917 73.1859 4.94052C72.3217 4.97998 71.506 5.35107 70.9084 5.97659C70.3108 6.60211 69.9773 7.43393 69.9773 8.29904C69.9773 9.16414 70.3108 9.99594 70.9084 10.6215C71.506 11.247 72.3217 11.6181 73.1859 11.6575C73.6203 11.6589 74.0504 11.5718 74.45 11.4015C74.8496 11.2313 75.2104 10.9815 75.5104 10.6673C75.8103 10.3531 76.0432 9.98116 76.1947 9.57409C76.3463 9.16703 76.4134 8.73337 76.3919 8.29953" fill="#00E482"/>
<path d="M79.4449 1.35251V6.0705C79.7496 5.47539 80.2167 4.97882 80.7921 4.63831C81.3675 4.29779 82.0275 4.12727 82.6959 4.14651C83.7656 4.19049 84.7769 4.64636 85.5182 5.41879C86.2596 6.19123 86.6735 7.22039 86.6735 8.29102C86.6735 9.36164 86.2596 10.3908 85.5182 11.1632C84.7769 11.9357 83.7656 12.3915 82.6959 12.4355C82.0223 12.452 81.3575 12.2791 80.7773 11.9365C80.1971 11.5939 79.7248 11.0953 79.4139 10.4975V12.1305H78.5889V1.9115C78.5889 1.83809 78.6033 1.76542 78.6314 1.6976C78.6595 1.62978 78.7007 1.56814 78.7526 1.51624C78.8045 1.46433 78.8661 1.42314 78.934 1.39505C79.0018 1.36696 79.0744 1.35251 79.1479 1.35251H79.4449ZM82.6199 4.97052C81.9586 4.94742 81.3055 5.1223 80.7443 5.47278C80.183 5.82325 79.7393 6.33333 79.4698 6.93765C79.2004 7.54197 79.1175 8.213 79.2319 8.86472C79.3462 9.51643 79.6527 10.1191 80.1118 10.5956C80.5709 11.072 81.1618 11.4005 81.8089 11.539C82.4559 11.6774 83.1295 11.6194 83.7434 11.3726C84.3573 11.1257 84.8835 10.7011 85.2545 10.1532C85.6255 9.60536 85.8245 8.95919 85.8259 8.29752C85.8487 7.86484 85.7823 7.4321 85.6308 7.02615C85.4794 6.62021 85.2461 6.24974 84.9454 5.93774C84.6448 5.62575 84.2832 5.37888 83.8831 5.21249C83.4831 5.04611 83.0531 4.96375 82.6199 4.97052Z" fill="#00E482"/>
<path d="M87.0317 9.64151H87.8568C87.8794 9.93905 87.9624 10.2289 88.1006 10.4933C88.2388 10.7578 88.4294 10.9914 88.6607 11.1798C88.8921 11.3683 89.1593 11.5078 89.4462 11.5897C89.7332 11.6717 90.0338 11.6944 90.3297 11.6565C91.6427 11.6565 92.5887 10.9695 92.5887 10.0845C92.5887 7.9475 87.2307 9.32152 87.2307 6.43552C87.2307 5.12352 88.4668 4.14551 90.0998 4.14551C91.9168 4.14551 93.2448 5.22949 93.2448 6.72549L92.4048 6.71051C92.4048 5.67251 91.4288 4.93951 90.1048 4.93951C88.9608 4.93951 88.0587 5.57949 88.0587 6.41949C88.0587 8.49549 93.4167 7.2135 93.4167 10.0195C93.4167 11.4075 92.1167 12.4305 90.3337 12.4305C88.4107 12.4305 87.0338 11.2555 87.0338 9.63751" fill="#00E482"/>
<path d="M42.3118 12.1345H39.7778V2.8555C39.7778 2.46846 39.9315 2.09726 40.2051 1.82349C40.4787 1.54971 40.8498 1.39577 41.2368 1.39551H42.3118V12.1345Z" fill="#00E482"/>
<path d="M60.8477 10.2635L63.2567 2.43552C63.3496 2.13428 63.5366 1.8707 63.7901 1.68338C64.0436 1.49606 64.3505 1.39481 64.6657 1.3945H66.2137L62.7747 12.1335H58.9138L55.4587 1.3945H57.0218C57.3335 1.39486 57.6369 1.49492 57.8878 1.68005C58.1386 1.86519 58.3236 2.12569 58.4157 2.42349L60.8477 10.2635Z" fill="#00E482"/>
<path d="M49.5809 1.01251C48.4528 1.0504 47.3608 1.41955 46.441 2.07394C45.5213 2.72833 44.8145 3.63901 44.4089 4.69238C44.0033 5.74575 43.9167 6.89523 44.16 7.99746C44.4034 9.0997 44.9658 10.1059 45.7771 10.8907C46.5885 11.6754 47.6129 12.2039 48.7227 12.4103C49.8324 12.6167 50.9783 12.4919 52.0176 12.0514C53.0569 11.6108 53.9434 10.8741 54.5668 9.93307C55.1901 8.99203 55.5227 7.88829 55.5229 6.75952C55.5491 5.981 55.4118 5.20562 55.1198 4.48346C54.8279 3.76129 54.3877 3.10837 53.8278 2.56683C53.2679 2.02529 52.6006 1.60717 51.8691 1.33944C51.1376 1.07172 50.3581 0.960343 49.5809 1.01251ZM49.5809 10.3335C49.1167 10.342 48.6559 10.254 48.2275 10.0752C47.7991 9.89641 47.4124 9.63063 47.092 9.29471C46.7716 8.95878 46.5244 8.56004 46.366 8.12365C46.2076 7.68727 46.1415 7.22276 46.1719 6.75952C46.1647 6.14872 46.2981 5.54447 46.5619 4.99353C46.5613 4.99192 46.5613 4.99013 46.5619 4.98852C46.567 4.97622 46.5734 4.96448 46.5809 4.95352C46.5839 4.94135 46.5898 4.93007 46.5979 4.92053C46.6079 4.89953 46.6249 4.86851 46.6439 4.83551C46.6549 4.81951 46.6629 4.80351 46.6739 4.78351C46.6849 4.76351 46.7059 4.73153 46.7259 4.70453C46.9595 4.34635 47.2639 4.03977 47.6204 3.80365C47.9769 3.56752 48.378 3.40684 48.7989 3.33151L48.8569 3.32351C48.8743 3.32265 48.8917 3.32064 48.9089 3.3175C49.2814 3.26329 49.6616 3.30878 50.0108 3.44931C50.36 3.58984 50.6658 3.8204 50.8969 4.11752C50.9019 4.12952 50.9069 4.13652 50.9129 4.14752C50.9378 4.18896 50.9599 4.23206 50.9789 4.27652C50.9899 4.29852 50.9979 4.31951 51.0089 4.33951C51.2341 5.00734 51.2755 5.72345 51.1287 6.41278C50.982 7.10211 50.6525 7.73927 50.1749 8.2575C50.1749 8.2575 52.5749 6.89751 52.4799 4.78451C52.8244 5.38679 53.0002 6.07078 52.9889 6.76452C53.0204 7.22809 52.955 7.69313 52.797 8.13006C52.6389 8.56699 52.3916 8.96623 52.0709 9.3024C51.7502 9.63857 51.363 9.90429 50.9339 10.0827C50.5049 10.261 50.0434 10.3482 49.5789 10.3385" fill="#00E482"/>
<path d="M68.3177 12.1305H67.4788V1.91153C67.479 1.76345 67.538 1.62152 67.6428 1.51691C67.7476 1.41229 67.8897 1.35352 68.0378 1.35352H68.3177V12.1305Z" fill="#00E482"/>
<path d="M76.3919 4.45154H76.6729C76.8212 4.45154 76.9634 4.51043 77.0682 4.61526C77.173 4.7201 77.2319 4.86227 77.2319 5.01053V12.1295H76.3919V10.4805C76.0863 11.0835 75.6156 11.5873 75.0348 11.9333C74.4539 12.2792 73.7867 12.453 73.1109 12.4345C72.0412 12.3906 71.0299 11.9347 70.2886 11.1622C69.5473 10.3898 69.1333 9.36066 69.1333 8.29004C69.1333 7.21941 69.5473 6.19025 70.2886 5.41781C71.0299 4.64538 72.0412 4.18951 73.1109 4.14554C73.7886 4.12671 74.4576 4.30207 75.0389 4.65094C75.6203 4.99981 76.0897 5.50763 76.3919 6.11453V4.45154ZM76.3919 8.29852C76.4134 7.86468 76.3463 7.43102 76.1947 7.02395C76.0432 6.61688 75.8103 6.24493 75.5104 5.93075C75.2104 5.61658 74.8496 5.36677 74.45 5.19653C74.0504 5.02629 73.6203 4.93917 73.1859 4.94052C72.3217 4.97998 71.506 5.35107 70.9084 5.97659C70.3108 6.60211 69.9773 7.43393 69.9773 8.29904C69.9773 9.16414 70.3108 9.99594 70.9084 10.6215C71.506 11.247 72.3217 11.6181 73.1859 11.6575C73.6203 11.6589 74.0504 11.5718 74.45 11.4015C74.8496 11.2313 75.2104 10.9815 75.5104 10.6673C75.8103 10.3531 76.0432 9.98116 76.1947 9.57409C76.3463 9.16703 76.4134 8.73337 76.3919 8.29953" fill="#00E482"/>
<path d="M79.4449 1.35251V6.0705C79.7496 5.47539 80.2167 4.97882 80.7921 4.63831C81.3675 4.29779 82.0275 4.12727 82.6959 4.14651C83.7656 4.19049 84.7769 4.64636 85.5182 5.41879C86.2596 6.19123 86.6735 7.22039 86.6735 8.29102C86.6735 9.36164 86.2596 10.3908 85.5182 11.1632C84.7769 11.9357 83.7656 12.3915 82.6959 12.4355C82.0223 12.452 81.3575 12.2791 80.7773 11.9365C80.1971 11.5939 79.7248 11.0953 79.4139 10.4975V12.1305H78.5889V1.9115C78.5889 1.83809 78.6033 1.76542 78.6314 1.6976C78.6595 1.62978 78.7007 1.56814 78.7526 1.51624C78.8045 1.46433 78.8661 1.42314 78.934 1.39505C79.0018 1.36696 79.0744 1.35251 79.1479 1.35251H79.4449ZM82.6199 4.97052C81.9586 4.94742 81.3055 5.1223 80.7443 5.47278C80.183 5.82325 79.7393 6.33333 79.4698 6.93765C79.2004 7.54197 79.1175 8.213 79.2319 8.86472C79.3462 9.51643 79.6527 10.1191 80.1118 10.5956C80.5709 11.072 81.1618 11.4005 81.8089 11.539C82.4559 11.6774 83.1295 11.6194 83.7434 11.3726C84.3573 11.1257 84.8835 10.7011 85.2545 10.1532C85.6255 9.60536 85.8245 8.95919 85.8259 8.29752C85.8487 7.86484 85.7823 7.4321 85.6308 7.02615C85.4794 6.62021 85.2461 6.24974 84.9454 5.93774C84.6448 5.62575 84.2832 5.37888 83.8831 5.21249C83.4831 5.04611 83.0531 4.96375 82.6199 4.97052Z" fill="#00E482"/>
<path d="M87.0317 9.64151H87.8568C87.8794 9.93905 87.9624 10.2289 88.1006 10.4933C88.2388 10.7578 88.4294 10.9914 88.6607 11.1798C88.8921 11.3683 89.1593 11.5078 89.4462 11.5897C89.7332 11.6717 90.0338 11.6944 90.3297 11.6565C91.6427 11.6565 92.5887 10.9695 92.5887 10.0845C92.5887 7.9475 87.2307 9.32152 87.2307 6.43552C87.2307 5.12352 88.4668 4.14551 90.0998 4.14551C91.9168 4.14551 93.2448 5.22949 93.2448 6.72549L92.4048 6.71051C92.4048 5.67251 91.4288 4.93951 90.1048 4.93951C88.9608 4.93951 88.0587 5.57949 88.0587 6.41949C88.0587 8.49549 93.4167 7.2135 93.4167 10.0195C93.4167 11.4075 92.1167 12.4305 90.3337 12.4305C88.4107 12.4305 87.0338 11.2555 87.0338 9.63751" fill="#00E482"/>
<path d="M42.3118 12.1345H39.7778V2.8555C39.7778 2.46846 39.9315 2.09726 40.2051 1.82349C40.4787 1.54971 40.8498 1.39577 41.2368 1.39551H42.3118V12.1345Z" fill="#00E482"/>
<path d="M60.8477 10.2635L63.2567 2.43552C63.3496 2.13428 63.5366 1.8707 63.7901 1.68338C64.0436 1.49606 64.3505 1.39481 64.6657 1.3945H66.2137L62.7747 12.1335H58.9138L55.4587 1.3945H57.0218C57.3335 1.39486 57.6369 1.49492 57.8878 1.68005C58.1386 1.86519 58.3236 2.12569 58.4157 2.42349L60.8477 10.2635Z" fill="#00E482"/>
<path d="M49.5809 1.01251C48.4528 1.0504 47.3608 1.41955 46.441 2.07394C45.5213 2.72833 44.8145 3.63901 44.4089 4.69238C44.0033 5.74575 43.9167 6.89523 44.16 7.99746C44.4034 9.0997 44.9658 10.1059 45.7771 10.8907C46.5885 11.6754 47.6129 12.2039 48.7227 12.4103C49.8324 12.6167 50.9783 12.4919 52.0176 12.0514C53.0569 11.6108 53.9434 10.8741 54.5668 9.93307C55.1901 8.99203 55.5227 7.88829 55.5229 6.75952C55.5491 5.981 55.4118 5.20562 55.1198 4.48346C54.8279 3.76129 54.3877 3.10837 53.8278 2.56683C53.2679 2.02529 52.6006 1.60717 51.8691 1.33944C51.1376 1.07172 50.3581 0.960343 49.5809 1.01251ZM49.5809 10.3335C49.1167 10.342 48.6559 10.254 48.2275 10.0752C47.7991 9.89641 47.4124 9.63063 47.092 9.29471C46.7716 8.95878 46.5244 8.56004 46.366 8.12365C46.2076 7.68727 46.1415 7.22276 46.1719 6.75952C46.1647 6.14872 46.2981 5.54447 46.5619 4.99353C46.5613 4.99192 46.5613 4.99013 46.5619 4.98852C46.567 4.97622 46.5734 4.96448 46.5809 4.95352C46.5839 4.94135 46.5898 4.93007 46.5979 4.92053C46.6079 4.89953 46.6249 4.86851 46.6439 4.83551C46.6549 4.81951 46.6629 4.80351 46.6739 4.78351C46.6849 4.76351 46.7059 4.73153 46.7259 4.70453C46.9595 4.34635 47.2639 4.03977 47.6204 3.80365C47.9769 3.56752 48.378 3.40684 48.7989 3.33151L48.8569 3.32351C48.8743 3.32265 48.8917 3.32064 48.9089 3.3175C49.2814 3.26329 49.6616 3.30878 50.0108 3.44931C50.36 3.58984 50.6658 3.8204 50.8969 4.11752C50.9019 4.12952 50.9069 4.13652 50.9129 4.14752C50.9378 4.18896 50.9599 4.23206 50.9789 4.27652C50.9899 4.29852 50.9979 4.31951 51.0089 4.33951C51.2341 5.00734 51.2755 5.72345 51.1287 6.41278C50.982 7.10211 50.6525 7.73927 50.1749 8.2575C50.1749 8.2575 52.5749 6.89751 52.4799 4.78451C52.8244 5.38679 53.0002 6.07078 52.9889 6.76452C53.0204 7.22809 52.955 7.69313 52.797 8.13006C52.6389 8.56699 52.3916 8.96623 52.0709 9.3024C51.7502 9.63857 51.363 9.90429 50.9339 10.0827C50.5049 10.261 50.0434 10.3482 49.5789 10.3385" fill="#00E482"/>
</svg>
