<svg width="115" height="32" viewBox="0 0 115 32" fill="none" xmlns="http://www.w3.org/2000/svg">
<g clip-path="url(#clip0_1_90)">
<path d="M59.5073 10.4617C59.5073 12.4411 58.1942 13.7463 55.9578 13.7463H49.0959V6.82057H55.9578C58.2307 6.82057 59.5073 8.128 59.5073 10.1051V10.4594V10.4617ZM62.7354 17.3097V16.48C65.4619 15.376 67.1398 13.0286 67.1398 9.16114V8.608C67.1398 3.45143 63.3008 0 57.0589 0L42.2385 0.0251429L42.218 31.9017H49.1187V20.0709H58.714C59.7513 20.0709 60.5925 20.9097 60.5925 21.9406V31.9017H67.3883V21.6823C67.3883 19.104 65.1861 17.4469 62.7354 17.3097Z" fill="black"/>
<path d="M31.9272 0V31.8994H25.0356V15.2389H19.3614C18.698 15.2389 18.0597 15.4857 17.5696 15.9269C17.2892 16.1783 17.0703 16.4846 16.9198 16.8206C16.7694 17.1566 16.6896 17.5246 16.6896 17.9017V21.7486C16.6896 22.7794 15.8461 23.6183 14.8111 23.6183H10.2243C9.18706 23.6183 8.34585 22.7794 8.34585 21.7486V17.1109C8.34585 16.0777 9.18706 15.2411 10.2243 15.2411H14.3483C14.9 15.2411 15.4335 15.0469 15.8552 14.6949C16.1197 14.4731 16.3271 14.1989 16.4707 13.8949C16.6121 13.5909 16.6873 13.2549 16.6873 12.912V6.86171H0.0112305V0H31.9249H31.9272Z" fill="black"/>
<path d="M8.34602 27.7737V27.8446C8.34602 30.1394 6.47666 31.9977 4.17415 31.9977C1.87164 31.9977 0 30.1417 0 27.8469V27.776C0 25.4811 1.86708 23.6229 4.17187 23.6229C5.32312 23.6229 6.36723 24.0869 7.12182 24.8389C7.87868 25.5909 8.34374 26.6286 8.34374 27.776L8.34602 27.7737Z" fill="black"/>
<path d="M99.3179 6.86171V13.0949H112.725V19.3966H101.144C100.134 19.3966 99.3156 20.2103 99.3156 21.216V31.904H92.4241V0H114.998V6.86171H99.3156H99.3179Z" fill="black"/>
<path d="M83.0727 6.01371V26.064H87.2172V32H71.9294V26.064H76.074V6.01371H71.9294V0H87.2172V6.01371H83.0727Z" fill="black"/>
</g>
<defs>
<clipPath id="clip0_1_90">
<rect width="115" height="32" fill="white"/>
</clipPath>
</defs>
</svg>
