<svg width="22" height="22" viewBox="0 0 22 22" fill="none" xmlns="http://www.w3.org/2000/svg">
<path d="M16.4319 16.0694C15.5009 16.0694 14.5709 16.0814 13.6399 16.0694C13.3444 16.0709 13.0517 16.0142 12.7781 15.9025C12.5045 15.7908 12.2557 15.6264 12.0457 15.4185C11.8357 15.2107 11.6687 14.9635 11.5542 14.6911C11.4398 14.4187 11.38 14.1263 11.3784 13.8309C11.3769 13.5354 11.4335 13.2425 11.5452 12.9689C11.6569 12.6954 11.8215 12.4465 12.0293 12.2365C12.2372 12.0265 12.4845 11.8595 12.7569 11.7451C13.0293 11.6306 13.3215 11.5709 13.617 11.5694C15.5203 11.5521 17.4227 11.5521 19.324 11.5694C19.9207 11.5742 20.4911 11.8158 20.9097 12.2411C21.3283 12.6665 21.5607 13.2406 21.5559 13.8373C21.5512 14.4341 21.3096 15.0046 20.8843 15.4232C20.459 15.8417 19.8846 16.0742 19.2879 16.0694H16.4329H16.4319Z" fill="black"/>
<path d="M5.1338 10.3873C4.2008 10.3873 3.27085 10.4073 2.33985 10.3813C2.04062 10.392 1.74235 10.3424 1.46266 10.2355C1.18297 10.1286 0.927714 9.96654 0.711924 9.75896C0.496134 9.55138 0.324219 9.30261 0.206553 9.02727C0.0888867 8.75194 0.0277457 8.45572 0.0268652 8.1563C0.025975 7.85157 0.0861699 7.54969 0.203867 7.2686C0.321564 6.98752 0.494415 6.73289 0.712168 6.5197C0.92992 6.30652 1.18817 6.13911 1.47169 6.02739C1.75521 5.91568 2.05816 5.86196 2.3628 5.86931C4.2048 5.84531 6.04895 5.84331 7.88795 5.86931C8.44172 5.85456 8.98142 6.04508 9.40309 6.40435C9.82475 6.76361 10.0985 7.26615 10.1719 7.81524C10.2498 8.30866 10.1575 8.81397 9.91017 9.24798C9.66281 9.68198 9.27507 10.0189 8.8108 10.2033C8.46812 10.3225 8.1077 10.3823 7.74488 10.3803C6.87588 10.4043 6.00402 10.3882 5.13502 10.3882L5.1338 10.3873Z" fill="black"/>
<path d="M10.2186 16.6854C10.2186 17.5964 10.2396 18.5083 10.2186 19.4173C10.2313 19.981 10.0321 20.529 9.66053 20.9531C9.28899 21.3772 8.77201 21.6467 8.21155 21.7083C7.69551 21.7748 7.17242 21.658 6.73377 21.3781C6.29512 21.0983 5.96862 20.6733 5.81141 20.1773C5.73146 19.9062 5.69117 19.625 5.69153 19.3424C5.68153 17.5614 5.66853 15.7804 5.69153 13.9994C5.66881 13.701 5.70556 13.4011 5.79944 13.117C5.89333 12.8329 6.04239 12.5703 6.23841 12.3442C6.43443 12.1181 6.67335 11.9332 6.94129 11.8C7.20923 11.6668 7.50089 11.5881 7.79944 11.5683C8.11882 11.5506 8.43852 11.5999 8.73768 11.7131C9.03683 11.8263 9.30892 12.001 9.5365 12.2258C9.76409 12.4506 9.94201 12.7204 10.059 13.0181C10.1759 13.3159 10.2292 13.6347 10.2155 13.9543C10.2365 14.8643 10.2155 15.7763 10.2155 16.6873L10.2186 16.6854Z" fill="black"/>
<path d="M15.8606 5.36632C15.8606 6.31732 15.8886 7.26625 15.8506 8.21825C15.8446 8.79049 15.6147 9.33761 15.21 9.74217C14.8052 10.1467 14.2578 10.3766 13.6856 10.3823C13.4005 10.4018 13.1147 10.3644 12.8443 10.2724C12.5738 10.1804 12.3241 10.0357 12.1101 9.84642C11.8961 9.65717 11.7221 9.42721 11.5977 9.17003C11.4733 8.91285 11.4013 8.63351 11.3858 8.34825C11.3078 6.32825 11.2998 4.30133 11.3858 2.28233C11.4005 1.98717 11.4758 1.69817 11.6069 1.43334C11.7381 1.1685 11.9224 0.933433 12.1482 0.742784C12.374 0.552134 12.6366 0.409956 12.9197 0.325059C13.2028 0.240162 13.5003 0.21434 13.7937 0.249253C14.3531 0.286546 14.8775 0.535153 15.2605 0.944566C15.6436 1.35398 15.8567 1.89367 15.8567 2.45433C15.8567 2.53433 15.8667 2.61527 15.8667 2.69627C15.8667 3.58627 15.8667 4.4773 15.8667 5.3673L15.8606 5.36632Z" fill="black"/>
<path d="M11.2988 17.1584C12.2985 17.1566 13.2973 17.2197 14.2888 17.3473C14.8045 17.4836 15.2505 17.8086 15.5381 18.2578C15.8257 18.7071 15.9339 19.2479 15.8418 19.7734C15.7741 20.2999 15.5224 20.7856 15.1311 21.1444C14.7398 21.5033 14.2343 21.7123 13.7039 21.7344C13.1924 21.7645 12.687 21.6118 12.2776 21.3037C11.8682 20.9957 11.5817 20.5522 11.469 20.0524C11.3603 19.0915 11.3034 18.1254 11.2988 17.1584Z" fill="black"/>
<path d="M10.1659 4.74236C9.34493 4.74236 8.56604 4.78533 7.80704 4.73333C7.24718 4.69726 6.72091 4.45344 6.33146 4.04961C5.942 3.64579 5.71734 3.11115 5.70157 2.55035C5.6858 1.98954 5.88011 1.44307 6.24625 1.018C6.6124 0.592927 7.12411 0.319852 7.68107 0.252374C7.96808 0.208409 8.2609 0.222918 8.54215 0.295098C8.8234 0.367278 9.08717 0.49567 9.31754 0.672417C9.54791 0.849165 9.74018 1.0707 9.88273 1.32366C10.0253 1.57663 10.115 1.85573 10.1469 2.14434C10.206 3.00915 10.2124 3.87678 10.1659 4.74236Z" fill="black"/>
<path d="M4.50977 11.5743C4.55011 12.462 4.54373 13.3512 4.49072 14.2383C4.39619 14.7938 4.09331 15.2924 3.6438 15.6323C3.19429 15.9722 2.63206 16.1278 2.07178 16.0674C1.51339 16.0104 0.995779 15.7492 0.618164 15.334C0.240549 14.9187 0.0296399 14.3786 0.0258789 13.8174C0.0270757 13.2552 0.238801 12.7139 0.619385 12.3002C0.999968 11.8864 1.5217 11.6304 2.08179 11.5824C2.86779 11.5324 3.65477 11.5743 4.50977 11.5743Z" fill="black"/>
<path d="M17.065 10.3663C17.0187 9.47232 17.0263 8.57638 17.0879 7.68332C17.1888 7.15169 17.4803 6.67524 17.908 6.34372C18.3356 6.0122 18.8699 5.84842 19.4099 5.88327C19.9904 5.92578 20.5331 6.1868 20.9287 6.61362C21.3244 7.04043 21.5433 7.60134 21.5418 8.18332C21.5367 8.73452 21.3254 9.26382 20.9495 9.66696C20.5735 10.0701 20.0603 10.3178 19.5108 10.3613C18.7108 10.4063 17.906 10.3663 17.065 10.3663Z" fill="black"/>
</svg>
