<svg width="26" height="22" viewBox="0 0 26 22" fill="none" xmlns="http://www.w3.org/2000/svg">
<path d="M17.73 0H18.0889C18.1289 0.005 18.168 0.0129912 18.207 0.0159912C18.316 0.0249912 18.4257 0.0289922 18.5347 0.0419922C19.724 0.181225 20.8312 0.719104 21.6758 1.56799C21.7076 1.60999 21.752 1.64054 21.8027 1.65497C21.8534 1.6694 21.9079 1.66695 21.957 1.64801H21.9668C22.8484 1.45778 23.7021 1.15529 24.5068 0.747986C24.6878 0.656986 24.864 0.555999 25.043 0.460999C25.074 0.444999 25.1009 0.415993 25.1499 0.429993C25.1409 0.465993 25.135 0.497029 25.124 0.530029C24.8728 1.24754 24.4706 1.9029 23.9448 2.45203C23.6508 2.75979 23.3212 3.03134 22.9629 3.26099C22.9409 3.27499 22.9197 3.29302 22.8877 3.31702C22.9157 3.31702 22.9246 3.31702 22.9346 3.31702C23.6967 3.22127 24.4461 3.04048 25.168 2.77802C25.405 2.69202 25.6357 2.58798 25.8677 2.49298V2.53302C25.8477 2.55902 25.8266 2.585 25.8066 2.612C25.1461 3.57253 24.3359 4.42096 23.4067 5.125C23.2137 5.272 23.2308 5.20301 23.2358 5.47601C23.2546 6.16709 23.2268 6.85866 23.1528 7.54602C23.0314 8.60362 22.8022 9.646 22.4688 10.657C22.1588 11.5985 21.7617 12.5092 21.2827 13.377C20.6105 14.5992 19.7756 15.7244 18.8008 16.722C18.452 17.0776 18.0847 17.4147 17.7007 17.732C16.3872 18.8216 14.8881 19.6651 13.2749 20.222C12.4008 20.5238 11.5007 20.7437 10.5859 20.879C10.1119 20.95 9.63671 21.002 9.15771 21.026C9.03671 21.032 8.91497 21.048 8.79297 21.06H7.49268C7.45068 21.054 7.40772 21.046 7.36572 21.042C7.02772 21.013 6.68903 20.993 6.35303 20.955C5.6161 20.8705 4.88654 20.7301 4.1709 20.535C3.30422 20.2995 2.46026 19.9872 1.64893 19.602C1.1176 19.3491 0.601502 19.0657 0.103027 18.753C0.0740273 18.735 0.0465547 18.713 0.0185547 18.692C0.0216803 18.6835 0.0246515 18.6748 0.0268555 18.666C0.938495 18.7636 1.85838 18.7495 2.7666 18.624C3.67943 18.4958 4.57173 18.248 5.41992 17.887C6.27139 17.5271 7.07151 17.0563 7.7998 16.487C7.7548 16.478 7.73389 16.473 7.71289 16.471C7.58089 16.459 7.44799 16.45 7.31299 16.435C6.69381 16.3641 6.09195 16.1829 5.53662 15.9C4.73165 15.4922 4.04346 14.8866 3.53662 14.14C3.27524 13.7582 3.06598 13.3432 2.91455 12.906C2.90496 12.8703 2.89874 12.8338 2.89502 12.797C2.90826 12.7919 2.92153 12.7882 2.93555 12.786C2.959 12.787 2.98268 12.7893 3.00586 12.793C3.34729 12.8482 3.69284 12.8712 4.03857 12.862C4.40426 12.8518 4.76834 12.8036 5.12402 12.718C5.14509 12.7108 5.16505 12.7017 5.18457 12.691C5.17357 12.68 5.16955 12.674 5.16455 12.672L5.06494 12.647C3.97621 12.3844 2.9993 11.782 2.27588 10.927C1.62937 10.1804 1.21017 9.26429 1.06787 8.28699C1.03087 8.04099 1.02291 7.78703 1.00391 7.54303C1.00575 7.5012 1.01185 7.45963 1.02197 7.41901C1.06997 7.44101 1.10279 7.45401 1.13379 7.47101C1.54455 7.68514 1.98141 7.8445 2.43359 7.94501C2.69297 8.00452 2.95697 8.04199 3.22266 8.05701C3.25597 8.05864 3.28944 8.05864 3.32275 8.05701L3.33057 8.03302C2.78736 7.65372 2.31901 7.17738 1.94873 6.62799C1.58021 6.08168 1.31744 5.47115 1.17383 4.828C1.02728 4.1811 1.00496 3.51225 1.10791 2.85699C1.20575 2.20325 1.43315 1.57563 1.77686 1.01099C1.78582 1.01443 1.79414 1.01918 1.80176 1.02502C1.82076 1.04402 1.83798 1.06502 1.85498 1.08502C2.38737 1.72788 2.97208 2.32557 3.60303 2.87201C4.63669 3.76897 5.78786 4.52059 7.0249 5.10602C8.11645 5.62361 9.26621 6.0077 10.4497 6.25C11.0396 6.36973 11.636 6.45488 12.2358 6.505C12.3638 6.51601 12.495 6.52398 12.624 6.52698C12.689 6.52698 12.6999 6.51097 12.6929 6.44897C12.6911 6.4358 12.6882 6.42283 12.6846 6.41003C12.5984 5.97632 12.5652 5.53374 12.585 5.09198C12.6041 4.62974 12.6842 4.17212 12.8237 3.73102C13.128 2.75632 13.7104 1.89159 14.499 1.24298C15.2993 0.570395 16.2822 0.152541 17.3218 0.0430298C17.4668 0.0230298 17.598 0.012 17.73 0Z" fill="black"/>
</svg>
